<?xml version="1.0" standalone="no"?>
<!DOCTYPE svg PUBLIC "-//W3C//DTD SVG 20010904//EN"
 "http://www.w3.org/TR/2001/REC-SVG-20010904/DTD/svg10.dtd">
<svg version="1.0" xmlns="http://www.w3.org/2000/svg"
 width="2048.000000pt" height="2048.000000pt" viewBox="0 0 2048.000000 2048.000000"
 preserveAspectRatio="xMidYMid meet">
<metadata>
Created by potrace 1.14, written by Peter Selinger 2001-2017
</metadata>
<g transform="translate(0.000000,2048.000000) scale(0.100000,-0.100000)"
fill="#000000" stroke="none">
<path d="M9765 18869 c-1552 -85 -3076 -601 -4364 -1476 -955 -649 -1747
-1455 -2386 -2427 -1886 -2868 -1886 -6614 0 -9482 505 -768 1136 -1460 1850
-2029 1741 -1389 3938 -2047 6165 -1850 1733 154 3368 825 4725 1938 301 247
670 601 940 902 1017 1132 1719 2511 2030 3989 184 872 231 1785 139 2696
-240 2391 -1510 4611 -3465 6057 -1365 1011 -2981 1591 -4684 1683 -217 11
-729 11 -950 -1z m785 -1499 c2196 -96 4175 -1153 5480 -2925 601 -816 1036
-1800 1234 -2796 189 -947 189 -1904 0 -2849 -328 -1640 -1244 -3131 -2569
-4181 -886 -703 -1924 -1185 -3016 -1403 -1363 -272 -2755 -152 -4034 349
-1667 652 -3042 1923 -3824 3536 -685 1412 -885 2994 -575 4548 426 2135 1844
3989 3803 4971 981 491 2029 742 3161 758 58 1 211 -3 340 -8z"/>
<path d="M7858 14896 c-95 -39 -162 -108 -198 -202 -19 -53 -20 -76 -20 -642
l0 -588 34 -69 c41 -84 91 -134 171 -172 l60 -28 570 -3 c608 -4 643 -1 722
45 54 32 113 96 143 158 l25 50 0 610 0 610 -26 56 c-34 72 -96 134 -168 168
l-56 26 -600 2 -600 3 -57 -24z"/>
<path d="M7864 12649 c-60 -23 -135 -85 -171 -142 -52 -83 -53 -87 -53 -712
l0 -581 34 -69 c41 -84 91 -134 171 -172 l60 -28 570 -3 c608 -4 643 -1 722
45 54 32 113 96 143 158 l25 50 0 610 0 610 -26 56 c-34 72 -96 134 -168 168
l-56 26 -600 2 c-578 2 -602 1 -651 -18z"/>
<path d="M7864 10399 c-60 -23 -135 -85 -171 -142 -52 -83 -53 -87 -53 -712
l0 -581 34 -69 c41 -84 91 -134 171 -172 l60 -28 600 0 600 0 62 29 c72 33
137 97 173 171 l25 50 0 610 0 610 -26 56 c-34 72 -96 134 -168 168 l-56 26
-600 2 c-578 2 -602 1 -651 -18z"/>
<path d="M7863 8149 c-57 -22 -140 -91 -173 -143 -49 -80 -50 -92 -50 -712 l0
-581 35 -71 c41 -81 94 -133 174 -171 l56 -26 600 0 600 0 61 28 c64 30 127
88 160 147 45 80 45 85 42 705 l-3 590 -26 56 c-15 32 -46 76 -69 99 -23 23
-67 54 -99 69 l-56 26 -600 2 c-580 2 -602 2 -652 -18z"/>
<path d="M10109 8147 c-102 -43 -160 -102 -199 -206 -19 -49 -20 -80 -20 -639
l0 -588 33 -69 c39 -81 94 -135 176 -174 l56 -26 600 0 600 0 56 26 c84 40
137 93 176 176 l33 73 -2 597 -3 598 -26 56 c-15 32 -46 76 -69 99 -23 23 -67
54 -99 69 l-56 26 -600 2 -600 3 -56 -23z"/>
<path d="M12359 8147 c-73 -31 -121 -68 -158 -124 -63 -95 -62 -80 -59 -734
l3 -594 28 -55 c40 -76 98 -133 171 -167 l61 -28 600 0 600 0 61 28 c73 34
131 91 171 167 l28 55 0 610 0 610 -26 56 c-15 32 -46 76 -69 99 -23 23 -67
54 -99 69 l-56 26 -600 2 -600 3 -56 -23z"/>
</g>
</svg>
